<?xml version="1.0" standalone="no"?>
<!DOCTYPE svg PUBLIC "-//W3C//DTD SVG 20010904//EN"
 "http://www.w3.org/TR/2001/REC-SVG-20010904/DTD/svg10.dtd">
<svg version="1.0" xmlns="http://www.w3.org/2000/svg"
 width="2048.000000pt" height="2048.000000pt" viewBox="0 0 2048.000000 2048.000000"
 preserveAspectRatio="xMidYMid meet">
<metadata>
Created by potrace 1.11, written by Peter Selinger 2001-2013
</metadata>
<g transform="translate(0.000000,2048.000000) scale(0.100000,-0.100000)"
fill="#000000" stroke="none">
<path d="M4585 15029 c-70 -16 -145 -41 -151 -50 -3 -5 -10 -7 -15 -4 -5 4 -9
1 -9 -4 0 -6 -5 -11 -11 -11 -17 0 -110 -65 -149 -104 -73 -73 -92 -97 -131
-171 -49 -94 -78 -202 -84 -315 -4 -69 -11 -131 -20 -170 -13 -56 -20 -79 -33
-109 -9 -20 -15 -39 -14 -43 1 -5 -3 -8 -8 -8 -6 0 -10 -5 -10 -11 0 -23 -81
-127 -141 -182 -82 -74 -89 -79 -89 -70 0 4 -4 3 -8 -3 -10 -16 -100 -60 -152
-74 -86 -23 -119 -28 -228 -34 -51 -3 -96 -7 -100 -10 -9 -5 -59 -17 -79 -18
-7 -1 -13 -5 -13 -10 0 -4 -7 -8 -15 -8 -40 0 -148 -70 -229 -148 -67 -65
-165 -217 -157 -246 1 -4 -2 -13 -7 -20 -9 -10 -14 -27 -27 -96 -3 -14 -7 -56
-10 -95 -8 -117 -16 -176 -25 -201 -5 -13 -7 -24 -5 -24 3 0 -6 -25 -20 -55
-13 -30 -21 -55 -17 -55 4 0 2 -4 -4 -8 -6 -4 -19 -22 -29 -41 -22 -44 -28
-51 -105 -130 -72 -73 -105 -101 -120 -101 -6 0 -10 -4 -10 -10 0 -5 -6 -10
-14 -10 -7 0 -33 -10 -57 -23 -46 -25 -121 -47 -177 -53 -18 -1 -36 -6 -41 -9
-5 -3 -12 -1 -16 5 -4 6 -12 7 -18 3 -7 -4 -25 -8 -42 -9 -30 -1 -102 -11
-141 -18 -31 -6 -194 -77 -194 -85 0 -3 -17 -17 -37 -31 -45 -30 -103 -90
-144 -147 -27 -39 -81 -138 -85 -155 -1 -5 -2 -9 -4 -10 -1 -2 -3 -10 -5 -18
-2 -8 -9 -33 -15 -55 -18 -68 -21 -223 -5 -300 45 -215 178 -387 371 -481 50
-25 109 -47 130 -49 22 -2 41 -5 44 -6 3 -1 10 -3 15 -4 6 -2 12 -3 15 -4 3
-1 37 -4 76 -5 40 -2 77 -7 83 -10 6 -4 11 -2 11 5 0 8 4 8 15 -1 9 -7 18 -10
22 -7 3 4 12 2 20 -4 7 -6 13 -9 13 -6 0 4 18 0 40 -8 300 -106 484 -377 467
-685 -6 -104 -8 -119 -33 -194 -57 -170 -194 -325 -354 -399 -54 -25 -127 -48
-168 -52 -20 -2 -37 -5 -37 -6 0 0 -31 -3 -70 -4 -38 -2 -81 -5 -95 -8 -14 -3
-43 -8 -65 -12 -48 -8 -225 -91 -225 -105 0 -6 -6 -10 -13 -10 -15 0 -114
-101 -147 -150 -13 -19 -27 -37 -31 -40 -17 -12 -73 -162 -86 -230 -9 -45 -8
-236 2 -275 11 -47 12 -49 18 -65 9 -25 18 -55 19 -60 0 -3 14 -30 30 -60 100
-180 270 -306 469 -345 13 -3 58 -7 99 -10 122 -9 160 -14 219 -34 59 -20 113
-42 121 -51 3 -3 18 -11 33 -19 62 -32 225 -201 213 -220 -3 -4 4 -14 15 -21
10 -8 19 -20 19 -28 0 -7 7 -27 16 -43 8 -17 17 -38 20 -47 21 -81 33 -156 35
-216 1 -38 6 -90 11 -115 5 -26 10 -53 11 -61 23 -124 120 -276 237 -372 46
-37 180 -113 180 -102 0 4 6 2 13 -4 6 -5 26 -13 42 -16 17 -3 41 -9 55 -12
14 -3 50 -7 80 -9 111 -8 176 -16 210 -26 70 -21 146 -54 176 -76 17 -13 34
-23 38 -23 14 0 137 -124 159 -160 11 -19 24 -37 28 -40 6 -5 51 -97 55 -112
1 -5 3 -10 4 -13 1 -3 3 -9 4 -14 0 -5 4 -13 9 -17 4 -4 7 -17 7 -29 0 -12 3
-25 6 -28 7 -7 11 -39 19 -167 3 -47 9 -102 14 -122 5 -21 6 -38 3 -38 -3 0
-1 -5 6 -12 7 -7 12 -17 12 -24 0 -6 8 -29 17 -50 9 -22 17 -42 17 -45 1 -3
20 -34 43 -70 45 -70 130 -159 184 -192 19 -12 37 -25 40 -30 3 -5 9 -9 12 -8
4 0 30 -10 59 -23 120 -52 279 -68 403 -40 179 41 361 174 435 319 10 20 23
42 29 49 6 7 12 21 14 32 1 10 5 24 9 29 6 11 27 84 35 125 12 63 4 254 -12
279 -2 4 -6 19 -9 34 -12 67 -94 214 -156 278 -39 40 -128 108 -133 102 -4 -3
-7 -1 -7 5 0 11 -58 41 -134 68 -51 18 -79 24 -146 30 -30 2 -80 6 -110 9
-152 12 -291 71 -405 172 -41 36 -112 131 -140 189 -17 32 -33 61 -38 62 -4 2
-5 7 -2 12 3 5 0 21 -6 37 -7 15 -13 35 -15 43 -13 70 -16 94 -20 160 -2 41
-6 94 -9 117 -4 24 -6 45 -6 48 1 9 -30 89 -47 120 -9 17 -15 31 -13 33 1 2
-8 20 -21 40 -12 20 -24 41 -27 46 -18 42 -132 146 -210 193 -109 65 -197 89
-375 99 -49 3 -98 10 -110 16 -11 6 -21 10 -21 9 0 -2 -18 2 -41 8 -51 14
-124 52 -186 97 -55 41 -158 151 -158 170 0 8 -4 14 -8 14 -13 0 -70 129 -88
200 -21 82 -25 224 -9 298 12 52 16 69 33 112 3 8 6 18 6 22 1 3 4 10 8 14 5
4 8 16 8 26 0 10 4 18 9 18 5 0 13 10 17 23 22 70 227 267 279 267 8 0 15 5
15 10 0 6 8 10 18 10 10 0 22 3 26 7 3 4 12 8 19 10 7 1 39 9 72 18 33 8 96
17 140 20 121 7 161 12 181 23 11 6 24 11 29 12 13 3 37 11 55 18 8 3 17 6 20
6 3 1 32 18 66 38 100 62 209 177 246 263 7 17 16 33 21 36 4 3 10 16 12 30 3
13 9 35 14 49 38 101 43 262 12 381 -57 223 -210 393 -425 474 -71 27 -126 36
-218 38 -38 1 -68 6 -68 10 0 5 -4 6 -9 3 -10 -7 -107 10 -136 23 -11 5 -35
15 -53 22 -55 20 -154 88 -202 138 -58 60 -90 99 -90 110 0 5 -4 11 -9 13 -19
7 -74 147 -92 232 -17 82 -19 204 -6 261 3 11 11 40 17 65 6 25 14 55 17 68 3
12 9 22 13 22 4 0 10 10 14 23 8 33 81 142 111 165 14 11 25 24 25 28 1 21
191 141 231 147 8 2 19 5 24 8 26 15 83 26 180 33 121 10 151 14 195 26 89 24
187 73 249 125 44 37 101 97 101 105 0 5 6 13 13 17 8 4 24 28 38 53 13 25 26
47 30 50 7 7 39 92 44 119 2 11 6 25 9 29 7 12 16 87 20 177 10 185 74 341
190 460 70 72 128 115 196 147 32 15 75 31 75 28 0 -1 14 4 30 10 41 16 60 19
140 25 133 9 184 16 220 29 11 4 37 14 58 21 53 19 167 84 167 95 0 6 5 10 10
10 29 0 201 223 193 250 -1 3 2 10 7 15 12 15 40 113 47 165 11 81 6 203 -12
270 -10 38 -11 44 -19 62 -4 9 -9 22 -10 30 -1 7 -8 24 -16 38 -8 14 -15 27
-15 30 -1 16 -82 124 -122 163 -88 86 -169 134 -293 173 -55 18 -240 26 -295
13z"/>
<path d="M6419 13494 c-41 -6 -76 -10 -78 -8 -2 2 -10 -1 -18 -7 -7 -6 -13 -9
-13 -6 0 3 -29 -5 -65 -18 -83 -31 -198 -98 -254 -149 -43 -40 -53 -50 -98
-103 -23 -28 -106 -183 -97 -183 2 0 0 -8 -5 -19 -17 -31 -29 -115 -34 -238
-1 -29 -5 -53 -8 -53 -3 0 -5 -11 -4 -25 2 -14 0 -25 -5 -25 -5 0 -7 -7 -6
-17 2 -9 -8 -38 -21 -65 -13 -26 -23 -50 -23 -53 0 -4 -18 -33 -41 -66 -44
-65 -106 -131 -165 -175 -22 -16 -41 -31 -44 -34 -13 -14 -110 -60 -110 -53 0
4 -4 3 -8 -3 -7 -12 -122 -49 -182 -60 -19 -3 -69 -7 -110 -9 -41 -2 -75 -4
-75 -5 0 -1 -25 -3 -55 -5 -30 -3 -64 -7 -75 -9 -11 -3 -37 -10 -58 -15 -49
-12 -168 -62 -185 -78 -6 -6 -21 -15 -32 -18 -11 -3 -20 -11 -20 -16 0 -5 -6
-9 -14 -9 -22 0 -158 -142 -195 -204 -41 -68 -80 -175 -88 -236 -12 -103 -3
-232 19 -273 6 -12 11 -23 10 -25 -6 -6 13 -58 25 -70 7 -7 13 -19 13 -27 0
-19 86 -133 134 -178 91 -85 272 -185 345 -189 14 -1 31 -5 36 -9 9 -6 75 -13
245 -25 79 -5 188 -31 255 -60 22 -10 42 -18 45 -19 6 -1 45 -25 104 -64 50
-33 135 -115 166 -161 13 -19 27 -37 30 -40 6 -6 54 -102 55 -110 0 -3 3 -10
7 -16 4 -6 9 -22 12 -37 3 -15 8 -37 11 -49 4 -11 9 -44 10 -72 2 -28 4 -53 5
-56 1 -3 1 -9 0 -15 -1 -5 -4 -30 -6 -55 -5 -47 -11 -85 -15 -85 -1 0 -3 -9
-4 -20 -1 -11 -14 -46 -28 -78 -14 -31 -26 -60 -26 -62 0 -3 -10 -15 -21 -27
-11 -12 -20 -26 -20 -31 0 -11 -130 -140 -175 -175 -29 -22 -164 -91 -188 -96
-7 -2 -19 -6 -27 -9 -55 -22 -134 -34 -285 -42 -99 -5 -106 -7 -198 -30 -70
-18 -207 -82 -251 -117 -68 -54 -129 -114 -161 -158 -36 -49 -93 -158 -101
-191 -2 -10 -6 -29 -10 -41 -3 -13 -8 -34 -11 -48 -7 -31 -7 -176 0 -210 19
-94 73 -226 103 -251 8 -6 14 -16 14 -21 0 -10 114 -126 159 -161 33 -26 184
-102 226 -113 91 -24 162 -35 246 -39 242 -11 416 -76 554 -207 22 -21 43 -38
48 -38 4 0 7 -5 7 -10 0 -6 11 -21 23 -33 62 -58 133 -231 142 -344 13 -166
15 -180 30 -238 10 -39 57 -135 84 -173 11 -17 21 -35 21 -42 0 -6 5 -8 10 -5
6 3 10 2 10 -4 0 -20 113 -121 184 -165 61 -37 138 -72 196 -89 8 -2 17 -5 20
-6 59 -24 290 -34 360 -17 14 3 37 8 52 11 43 8 165 54 206 78 239 138 379
374 365 613 -4 66 -10 119 -13 119 -1 0 -7 20 -13 50 -2 8 -6 18 -10 21 -4 4
-7 16 -7 26 0 10 -4 18 -10 18 -5 0 -9 3 -8 8 2 4 -12 33 -30 64 -35 61 -122
156 -187 205 -50 38 -135 85 -135 75 0 -4 -4 -1 -9 6 -4 7 -14 15 -22 16 -8 2
-21 6 -29 9 -67 27 -177 47 -291 52 -167 8 -233 23 -361 80 -21 10 -38 21 -38
26 0 5 -7 9 -17 9 -18 0 -98 59 -153 112 -107 104 -184 263 -196 403 -6 79 -6
73 0 130 17 142 95 299 196 394 68 64 89 81 99 81 7 0 14 7 17 15 4 8 10 13
14 10 5 -3 14 1 22 8 29 28 185 86 273 102 17 3 71 7 120 10 193 12 280 32
396 91 61 31 74 30 53 -1 -9 -14 -13 -25 -9 -25 4 0 2 -7 -5 -15 -7 -8 -10
-15 -7 -15 3 0 1 -15 -5 -32 -12 -37 -17 -260 -6 -268 4 -3 9 -17 12 -30 11
-56 37 -130 46 -130 6 0 10 -6 10 -13 0 -22 79 -129 136 -184 99 -95 269 -183
404 -208 45 -9 252 -14 265 -7 5 3 21 7 34 8 141 15 333 114 439 226 114 120
171 238 187 388 2 19 4 36 5 38 2 3 2 81 0 85 -1 1 -3 20 -6 42 -9 83 -56 205
-108 280 -53 76 -100 121 -221 212 -12 10 -106 58 -114 59 -3 0 -18 6 -32 12
-25 10 -90 29 -134 39 -45 9 -243 11 -290 2 -27 -6 -59 -12 -70 -13 -11 -2
-31 -8 -45 -13 -14 -5 -49 -18 -77 -28 -29 -11 -53 -23 -53 -29 0 -5 -3 -6 -6
-3 -4 4 -20 -3 -37 -15 -29 -20 -29 -21 -19 -1 6 11 8 23 5 27 -3 3 0 6 7 6 7
0 11 3 7 6 -3 3 -1 17 4 31 16 44 22 95 20 183 -3 122 -4 130 -15 130 -5 0 -7
3 -3 6 14 14 -66 190 -108 239 -126 144 -230 215 -388 266 -76 24 -95 28 -193
34 -123 7 -218 17 -227 22 -4 2 -20 7 -35 9 -65 11 -193 68 -249 111 -18 13
-33 21 -33 17 0 -3 -36 31 -80 75 -44 45 -80 86 -80 91 0 5 -6 15 -12 22 -22
22 -66 112 -78 159 -20 75 -32 144 -30 174 1 11 2 41 3 68 1 26 4 47 7 47 3 0
5 10 6 23 1 34 12 77 22 90 5 7 14 27 20 45 29 86 134 211 237 284 143 102
281 143 510 153 125 5 220 28 323 78 l52 25 -6 -26 c-3 -15 -9 -40 -13 -57
-14 -60 -1 -256 19 -295 4 -8 9 -18 9 -22 4 -24 46 -107 76 -153 36 -53 152
-175 167 -175 4 0 18 -9 30 -20 13 -10 26 -18 29 -17 4 1 15 -5 25 -13 22 -18
75 -47 89 -50 6 -1 25 -8 44 -16 19 -8 36 -12 39 -10 2 3 16 0 31 -6 45 -17
68 -20 266 -32 90 -6 105 -8 123 -19 6 -5 12 -6 12 -3 0 16 220 -78 228 -96 2
-5 10 -8 18 -8 8 0 14 -4 14 -10 0 -5 6 -10 13 -10 18 -1 117 -97 164 -160 44
-59 97 -166 107 -215 4 -16 9 -41 12 -55 3 -14 8 -56 9 -95 5 -104 21 -191 47
-254 6 -14 12 -32 14 -39 1 -8 10 -22 18 -31 9 -10 16 -20 16 -24 0 -8 38 -63
65 -96 187 -222 511 -323 800 -251 44 11 85 22 90 23 6 1 16 6 23 10 6 5 12 5
12 0 0 -4 4 -3 8 2 4 6 29 20 55 33 150 70 312 248 353 387 34 116 44 212 30
305 -7 50 -14 85 -16 85 -1 0 -3 9 -5 20 -2 10 -22 56 -44 100 -64 129 -181
245 -318 314 -72 37 -181 73 -194 66 -5 -4 -9 -2 -9 3 0 9 -53 16 -230 27 -70
5 -90 7 -140 20 -11 3 -28 7 -37 9 -79 18 -210 87 -265 139 -10 9 -21 17 -25
17 -8 0 -113 109 -113 117 0 3 -10 20 -23 37 -64 86 -103 216 -112 371 -4 80
-10 122 -22 160 -4 11 -8 25 -9 31 -7 37 -82 166 -129 221 -5 7 -15 18 -21 25
-34 40 -199 161 -223 164 -3 0 -22 7 -41 16 -94 41 -190 60 -310 61 -70 1
-130 -5 -190 -18 -14 -2 -34 -7 -45 -9 -29 -6 -108 -37 -119 -48 -6 -4 -18 -8
-28 -8 -10 0 -18 -4 -18 -10 0 -5 -5 -10 -11 -10 -6 0 -8 8 -5 18 10 34 18 88
20 142 8 231 -112 449 -323 585 -66 43 -175 91 -231 102 -40 8 -55 11 -55 13
0 2 -94 10 -146 13 -26 1 -80 -3 -120 -9z"/>
<path d="M14295 11814 c0 -661 3 -1206 7 -1209 5 -6 546 -11 633 -6 19 1 20 8
20 210 l-1 210 39 43 c21 24 58 65 82 92 37 42 45 47 57 35 12 -11 65 -95 113
-177 48 -83 90 -148 97 -150 4 -2 8 -10 8 -17 0 -21 121 -140 172 -169 58 -34
145 -65 200 -71 23 -3 44 -8 46 -10 2 -2 15 0 28 5 13 5 24 6 24 2 0 -7 388
-8 395 0 3 2 -27 54 -65 114 -38 60 -79 128 -91 152 -13 23 -26 42 -31 42 -4
0 -8 5 -8 10 0 6 -25 49 -55 95 -30 47 -55 90 -55 95 0 6 -4 10 -10 10 -5 0
-10 5 -10 11 0 5 -18 37 -40 69 -22 32 -40 64 -40 69 0 6 -4 11 -10 11 -5 0
-10 6 -10 14 0 8 -6 21 -14 28 -7 8 -21 30 -31 48 -10 19 -21 37 -24 40 -12 9
-101 158 -101 168 0 6 -4 12 -8 14 -4 2 -18 20 -31 41 -23 37 -23 38 -5 60 24
27 91 102 124 137 14 15 57 62 95 105 39 43 84 93 100 111 17 17 47 51 69 75
77 88 182 203 209 232 16 16 26 31 24 34 -7 6 -737 9 -737 3 0 -3 -14 -21 -31
-40 -17 -19 -50 -57 -73 -84 -41 -50 -103 -121 -121 -142 -5 -6 -26 -31 -46
-55 -76 -91 -105 -125 -127 -149 -13 -14 -38 -44 -55 -67 -18 -23 -37 -44 -42
-46 -8 -3 -11 113 -11 367 0 204 -3 391 -7 416 -8 59 -41 143 -76 194 -42 60
-144 156 -166 156 -7 0 -18 6 -24 13 -9 11 -57 31 -103 43 -5 1 -9 2 -10 4
-10 7 -58 12 -158 14 l-115 3 0 -1203z"/>
<path d="M10537 12923 c-3 -3 -25 -7 -49 -9 -48 -5 -93 -12 -93 -14 0 -1 -8
-3 -17 -6 -56 -13 -74 -22 -137 -63 -129 -85 -208 -204 -227 -341 -10 -75 -10
-121 0 -129 6 -4 168 -7 359 -7 192 1 351 -2 354 -7 3 -5 5 -299 5 -655 1
-507 4 -658 14 -698 14 -50 42 -119 67 -159 17 -29 128 -138 155 -153 62 -35
99 -52 122 -56 14 -2 25 -5 25 -6 0 -2 35 -10 75 -16 34 -5 99 -7 178 -5 l38
1 -1 875 c0 481 2 875 5 876 3 1 66 2 140 4 74 2 135 4 135 5 0 1 12 3 26 5
49 6 163 58 214 96 128 96 192 214 202 373 5 79 4 89 -10 83 -9 -3 -19 -2 -22
4 -4 5 -11 6 -17 2 -16 -9 -79 -10 -105 -1 -12 4 -24 4 -27 0 -3 -6 -321 -7
-336 -2 -3 1 -9 1 -15 0 -25 -6 -82 -5 -102 2 -12 4 -24 4 -27 0 -3 -6 -321
-7 -336 -2 -3 1 -9 1 -15 0 -25 -6 -82 -5 -102 2 -12 4 -24 4 -27 0 -3 -6
-321 -7 -336 -2 -3 1 -9 1 -15 0 -25 -6 -52 -6 -71 1 -12 4 -24 5 -27 2z"/>
<path d="M12849 12425 c-2 -2 -24 -6 -49 -10 -163 -23 -378 -114 -495 -210
-88 -72 -205 -200 -205 -224 0 -6 -4 -11 -10 -11 -5 0 -10 -5 -10 -11 0 -6 -9
-24 -21 -40 -11 -16 -17 -29 -14 -29 3 0 -4 -15 -17 -32 -13 -18 -22 -34 -20
-35 1 -2 2 -4 1 -5 0 -2 -2 -10 -4 -18 -2 -8 -14 -49 -26 -90 -23 -81 -32
-280 -16 -370 27 -152 100 -309 197 -424 37 -43 128 -129 151 -142 11 -5 16
-13 13 -17 -4 -4 0 -7 8 -7 8 0 27 -9 41 -21 31 -24 202 -110 214 -108 4 1 17
-1 28 -5 54 -21 52 -20 95 -30 14 -3 36 -8 50 -11 74 -16 300 -23 370 -11 19
4 51 9 70 12 41 7 132 31 175 46 52 18 180 81 183 90 2 4 8 8 13 8 26 0 249
192 249 214 0 6 23 36 48 61 6 8 12 16 12 18 0 3 16 33 35 66 19 34 34 64 34
66 1 3 8 21 16 41 8 20 15 43 15 51 0 8 4 22 9 31 5 9 12 40 16 67 9 58 13
285 5 285 -3 0 -6 12 -7 28 -1 29 -2 33 -23 102 -8 25 -14 48 -14 52 -1 3 -4
10 -8 14 -5 4 -8 16 -8 26 0 10 -4 18 -10 18 -5 0 -10 7 -10 15 0 16 -8 30
-67 123 -39 60 -149 176 -208 218 -22 16 -42 31 -45 34 -3 3 -14 10 -25 16
-11 6 -40 22 -65 35 -85 47 -208 92 -285 104 -11 2 -33 6 -50 10 -31 8 -330
17 -336 10z m246 -546 c22 -6 45 -15 51 -20 6 -5 14 -6 17 -2 4 3 7 1 7 -5 0
-6 9 -13 19 -17 50 -16 153 -145 168 -210 8 -38 11 -50 13 -50 1 0 3 -31 4
-70 8 -219 -142 -399 -342 -410 -24 -2 -45 -5 -48 -8 -3 -3 -11 -4 -17 -2 -7
3 -23 7 -37 9 -97 20 -147 44 -208 100 -43 40 -89 105 -98 139 -3 15 -9 27
-13 27 -9 0 -10 13 -14 133 -2 54 0 100 5 103 4 3 8 13 8 23 0 18 34 94 53
118 32 39 94 96 118 109 97 50 206 61 314 33z"/>
<path d="M17127 12421 c-10 -4 -34 -6 -53 -6 -19 1 -34 -2 -34 -7 0 -4 -3 -7
-7 -6 -7 2 -80 -12 -93 -18 -3 -1 -16 -5 -29 -9 -46 -15 -190 -94 -243 -133
-98 -73 -212 -210 -257 -310 -6 -12 -19 -41 -30 -65 -16 -35 -35 -94 -46 -142
-8 -38 -17 -84 -20 -110 -6 -44 -6 -226 0 -255 3 -14 8 -41 11 -60 3 -19 8
-44 11 -55 4 -11 8 -26 10 -32 2 -7 5 -19 7 -25 17 -53 19 -63 17 -67 -2 -2 1
-7 6 -10 4 -3 16 -24 26 -46 52 -111 154 -232 267 -316 49 -37 222 -131 235
-128 3 0 29 -6 58 -15 49 -14 92 -25 127 -32 8 -2 30 -4 48 -6 17 -1 32 -5 32
-8 0 -6 245 -4 285 3 17 3 49 9 73 12 23 3 63 12 89 20 25 8 50 12 55 9 4 -3
8 0 8 6 0 6 4 9 9 5 5 -3 15 0 23 7 7 7 22 15 33 16 34 6 166 81 209 120 15
12 28 22 31 22 5 0 70 63 109 108 l29 33 -24 19 c-106 84 -316 251 -325 259
-8 7 -24 0 -50 -22 -85 -70 -162 -115 -186 -109 -5 1 -8 -2 -8 -7 0 -8 -33
-18 -85 -27 -32 -5 -168 -5 -192 0 -51 11 -133 40 -133 48 0 4 -6 8 -12 8 -18
0 -95 74 -120 116 -4 5 -16 34 -28 63 l-21 53 30 -4 c17 -2 28 -2 26 1 -2 3
21 6 51 6 30 0 54 -2 54 -5 0 -7 48 -5 56 2 3 4 18 2 34 -2 16 -4 31 -6 34 -3
2 3 29 5 58 4 29 -1 62 -1 73 -1 11 0 40 0 65 0 25 0 60 -1 78 -3 17 -2 32 0
32 3 0 3 15 5 33 3 17 -2 41 -3 52 -3 11 0 45 0 75 0 30 0 66 0 80 1 14 0 31
0 38 0 13 -1 26 -1 92 -1 25 0 60 -1 78 -3 17 -2 32 0 32 3 0 7 66 4 87 -4 7
-3 15 -2 17 3 3 4 22 6 43 4 l38 -3 -1 73 c0 39 3 80 8 89 4 9 4 19 0 22 -5 3
-10 31 -11 62 -1 31 -4 60 -6 64 -3 4 -7 27 -10 51 -6 51 -10 68 -17 89 -3 8
-18 49 -32 91 -15 42 -45 106 -66 143 -22 38 -40 70 -40 73 0 12 -170 173
-213 202 -38 26 -190 102 -200 100 -1 0 -9 2 -17 5 -21 6 -71 18 -95 23 -11 2
-33 6 -50 9 -46 9 -298 13 -318 5z m216 -466 c113 -23 223 -162 231 -290 1
-14 -5 -19 -24 -20 -14 0 -28 -4 -32 -10 -5 -7 -8 -7 -8 0 0 6 -103 10 -287
10 -207 0 -287 3 -286 11 1 6 4 23 7 38 21 116 139 245 240 263 11 2 21 5 24
7 4 5 99 -1 135 -9z"/>
<path d="M19609 12426 c-2 -2 -20 -6 -39 -9 -72 -11 -125 -31 -202 -75 -71
-40 -86 -51 -164 -129 -34 -35 -64 -63 -66 -63 -2 0 -3 54 -3 120 0 66 -2 120
-5 120 -7 1 -563 1 -615 0 l-40 0 1 -73 c0 -41 4 -79 8 -85 4 -7 4 -12 -1 -12
-4 0 -8 -47 -8 -105 0 -58 4 -105 8 -105 5 0 5 -6 0 -12 -10 -16 -10 -36 -1
-70 3 -15 3 -30 0 -32 -10 -6 -8 -158 2 -174 4 -6 4 -12 -1 -12 -4 0 -8 -41
-8 -90 0 -50 4 -90 8 -90 5 0 5 -6 0 -12 -10 -16 -10 -36 -1 -70 3 -15 3 -30
0 -32 -10 -6 -8 -158 2 -174 4 -6 4 -12 -1 -12 -4 0 -7 -37 -7 -82 1 -46 3
-83 4 -83 1 0 3 -13 4 -30 6 -68 31 -131 84 -213 30 -48 123 -129 181 -158 31
-16 58 -29 61 -29 3 0 10 -3 15 -6 12 -8 70 -22 105 -25 66 -7 190 -7 197 0 4
4 8 231 9 504 0 273 4 517 8 542 9 53 42 114 84 153 92 88 286 85 370 -6 28
-30 62 -99 67 -134 2 -15 4 -28 5 -28 1 0 3 -130 4 -290 1 -159 6 -310 10
-335 23 -133 140 -285 266 -347 90 -44 98 -47 180 -58 24 -3 46 -8 49 -10 2
-3 10 0 17 6 7 5 14 6 17 2 3 -5 29 -8 58 -7 38 1 54 6 58 18 8 21 5 1232 -3
1276 -13 75 -17 94 -25 109 -5 9 -7 24 -6 34 2 9 -1 17 -6 17 -5 0 -9 7 -9 15
0 26 -74 147 -118 191 -56 57 -174 129 -229 139 -10 2 -20 4 -23 6 -3 1 -9 3
-15 4 -5 2 -12 4 -15 5 -19 10 -263 24 -271 16z"/>
<path d="M535 10915 c-119 -28 -240 -94 -329 -181 -55 -53 -140 -180 -150
-224 -1 -3 -7 -15 -14 -27 -7 -13 -10 -23 -8 -23 3 0 -2 -19 -10 -42 -31 -83
-26 -254 10 -393 29 -108 122 -243 226 -327 46 -37 180 -113 180 -102 0 4 6 2
13 -4 7 -6 26 -14 42 -17 17 -3 44 -9 60 -13 38 -8 221 -7 258 2 89 21 228 86
257 121 7 8 17 15 22 15 10 0 118 110 118 121 0 4 7 14 15 23 22 22 80 141
100 206 23 74 29 248 11 325 -8 33 -12 63 -10 67 3 5 1 8 -4 8 -6 0 -13 12
-17 28 -15 62 -82 174 -141 238 -77 82 -195 154 -300 184 -35 10 -67 19 -69
19 -3 1 -6 2 -7 2 -14 8 -214 2 -253 -6z"/>
<path d="M13037 9835 c-5 -16 1 -1956 6 -1992 12 -89 83 -216 156 -281 99 -87
214 -132 358 -137 50 -1 95 -5 100 -8 5 -3 15 -2 23 3 20 12 21 1932 1 2028
-8 34 -18 62 -23 62 -5 0 -7 4 -4 8 15 25 -103 176 -179 228 -76 53 -185 91
-252 89 -18 0 -33 2 -33 5 0 10 -150 5 -153 -5z"/>
<path d="M10734 9741 c-2 -3 -4 -426 -4 -940 0 -1022 -2 -981 60 -1102 35 -70
125 -164 193 -203 44 -25 124 -55 167 -63 52 -9 250 -11 251 -2 3 38 1 77 -5
87 -4 7 -4 12 1 12 4 0 8 83 8 185 0 102 -3 185 -7 185 -4 0 -4 10 0 23 4 12
7 54 6 92 l-2 70 222 1 c256 1 332 8 471 39 17 4 35 8 40 9 23 5 93 29 124 43
18 8 39 16 45 17 20 4 66 29 66 36 0 3 16 12 35 19 19 7 35 16 35 21 0 5 8 11
18 14 22 7 141 120 175 168 53 72 132 258 126 295 -1 4 0 10 1 13 11 30 21
236 12 254 -3 5 -6 25 -8 45 -6 86 -72 258 -115 305 -11 11 -19 24 -19 29 0
17 -172 177 -191 177 -5 0 -9 5 -9 10 0 6 -3 9 -7 8 -5 -1 -19 4 -33 12 -50
29 -120 59 -120 52 0 -4 -4 -2 -8 4 -7 11 -111 45 -148 48 -11 1 -25 6 -32 10
-7 4 -12 5 -12 3 0 -3 -17 -1 -37 4 -21 4 -80 11 -131 15 -102 7 -1161 12
-1168 5z m1060 -545 c95 -11 147 -29 203 -72 66 -50 113 -153 106 -234 -11
-135 -68 -215 -192 -267 -64 -26 -74 -27 -287 -31 l-221 -4 1 136 c1 75 -3
136 -7 136 -5 0 -5 5 -2 10 10 16 12 110 3 110 -5 0 -5 8 0 18 4 9 7 59 6 110
l-2 92 34 -2 c18 -1 35 0 38 2 6 7 258 3 320 -4z"/>
<path d="M17070 9250 c0 -3 -25 -5 -57 -4 -68 0 -175 -18 -263 -47 -86 -28
-243 -106 -282 -141 -17 -15 -34 -28 -38 -28 -9 0 -99 -91 -135 -136 -16 -20
-35 -42 -41 -48 -43 -45 -134 -256 -149 -346 -3 -19 -8 -48 -11 -64 -7 -31 -7
-184 0 -226 13 -86 18 -115 26 -136 5 -13 7 -24 4 -24 -4 0 -2 -6 3 -12 6 -7
16 -31 23 -53 52 -159 192 -334 355 -440 69 -45 161 -91 205 -104 3 -1 28 -8
55 -17 100 -31 199 -42 335 -39 74 2 145 5 156 8 12 3 37 8 55 11 53 9 71 13
116 29 22 9 44 13 47 10 3 -4 6 -1 6 5 0 7 8 12 19 12 10 0 24 6 31 14 6 8 18
12 26 9 8 -3 14 -1 14 4 0 6 20 20 44 32 69 36 173 129 249 222 l37 46 -38 30
c-20 16 -48 36 -62 43 -14 7 -27 16 -30 19 -3 3 -41 30 -85 60 -44 30 -81 58
-83 63 -2 4 -9 8 -14 8 -6 0 -35 18 -64 40 -29 22 -59 40 -66 40 -7 0 -38 -25
-68 -55 -30 -30 -61 -54 -67 -55 -7 0 -13 -3 -13 -8 0 -4 -14 -13 -31 -21
-128 -56 -283 -48 -382 21 -41 28 -107 99 -107 116 0 6 -4 12 -10 12 -5 0 -10
9 -10 19 0 11 -4 22 -9 25 -27 17 -38 213 -17 300 12 48 52 119 92 162 36 39
134 104 134 90 0 -4 10 -1 23 5 29 17 159 20 222 7 70 -15 118 -43 182 -105
l56 -55 44 31 c24 17 46 31 49 31 3 0 12 6 19 13 31 27 44 37 50 37 4 0 33 20
65 45 32 25 62 45 65 45 4 0 20 10 35 23 16 12 47 35 69 50 l41 28 -27 37
c-40 56 -185 194 -229 219 -157 88 -297 132 -436 136 -32 1 -58 4 -58 7 0 3
-16 5 -35 5 -19 0 -35 -2 -35 -5z"/>
<path d="M18937 9254 c-1 -1 -32 -5 -70 -8 -37 -4 -78 -11 -91 -16 -13 -5 -27
-6 -30 -3 -3 4 -6 1 -6 -6 0 -7 -4 -10 -9 -7 -5 3 -25 -1 -45 -9 -20 -8 -38
-15 -41 -15 -3 0 -31 -11 -63 -26 -80 -36 -177 -103 -243 -166 -56 -54 -156
-178 -143 -178 4 0 0 -8 -9 -17 -18 -21 -70 -132 -70 -150 0 -7 -3 -13 -7 -13
-4 0 -7 -6 -8 -12 0 -7 -7 -40 -16 -73 -51 -204 -32 -448 47 -624 11 -25 20
-49 19 -53 -1 -5 3 -8 9 -8 5 0 8 -4 5 -9 -4 -5 -3 -11 2 -13 4 -1 19 -23 34
-48 24 -41 104 -137 136 -164 8 -6 24 -20 36 -31 33 -30 126 -89 164 -104 17
-8 32 -18 32 -23 0 -5 4 -7 8 -4 5 3 21 -2 37 -10 15 -8 53 -22 84 -31 61 -18
62 -18 106 -27 17 -3 41 -9 55 -12 39 -10 327 -12 368 -3 21 4 53 10 72 13 19
3 60 13 90 22 30 8 61 16 68 16 6 1 12 5 12 10 0 4 6 8 14 8 17 0 160 75 199
104 16 11 66 56 111 99 l81 78 -25 20 c-59 49 -102 83 -205 165 -60 48 -116
91 -122 96 -9 7 -27 -1 -60 -29 -114 -94 -212 -134 -344 -138 -149 -6 -257 33
-336 119 -38 41 -78 113 -85 151 -3 19 5 20 615 20 491 0 619 3 626 13 13 22
3 273 -14 352 -4 14 -8 36 -11 50 -3 14 -16 57 -30 95 -13 39 -26 75 -27 80
-1 6 -20 42 -41 80 -43 80 -90 141 -156 203 -45 44 -153 121 -174 125 -6 1
-13 5 -16 8 -14 16 -170 70 -245 84 -73 13 -279 27 -288 19z m155 -475 c56
-17 107 -49 144 -91 31 -35 72 -110 78 -144 2 -11 7 -31 11 -46 6 -23 4 -28
-11 -29 -93 -4 -627 -3 -630 2 -6 10 16 81 43 137 41 85 112 146 203 174 33
10 122 8 162 -3z"/>
<path d="M14867 9244 c-2 -2 -52 -6 -113 -9 -60 -3 -120 -7 -134 -10 -13 -2
-42 -7 -64 -11 -67 -10 -275 -64 -322 -84 -24 -11 -45 -19 -47 -19 -1 0 -9 -2
-18 -6 -14 -5 -13 -14 8 -78 14 -40 26 -80 28 -89 2 -9 17 -60 34 -113 17 -53
33 -104 34 -113 2 -9 7 -25 13 -35 10 -17 13 -17 50 -3 62 24 148 47 227 61
15 3 42 8 60 11 57 10 233 12 293 2 69 -10 158 -51 192 -87 38 -42 61 -94 68
-160 l6 -62 -28 6 c-16 4 -42 11 -59 15 -252 70 -599 54 -785 -35 -95 -45
-109 -55 -168 -114 -81 -81 -124 -168 -138 -274 -9 -68 -11 -149 -5 -162 3 -5
6 -21 7 -35 13 -147 119 -299 264 -374 112 -59 209 -80 360 -80 146 1 232 19
349 76 57 28 164 106 183 133 9 12 10 8 13 -75 1 -36 3 -72 4 -81 1 -14 36
-15 314 -14 171 1 317 2 323 3 12 2 12 1140 0 1197 -3 17 -9 46 -12 65 -29
171 -151 343 -296 420 -27 14 -48 29 -48 33 0 5 -4 6 -8 3 -5 -3 -22 2 -38 10
-36 19 -195 66 -202 60 -2 -3 -15 0 -29 5 -14 5 -64 11 -112 14 -47 3 -95 6
-106 8 -11 3 -30 0 -42 -4 -13 -5 -23 -5 -23 0 0 7 -26 11 -33 5z m131 -1049
c63 -4 145 -21 172 -35 14 -8 17 -21 15 -77 -3 -83 -12 -117 -41 -164 -47 -76
-128 -124 -221 -133 -13 -2 -26 -5 -29 -8 -3 -4 -15 -5 -27 -3 -12 2 -42 6
-67 10 -100 14 -170 97 -166 194 3 69 17 102 56 141 31 30 90 66 90 54 0 -4 7
-1 15 6 8 7 15 9 15 6 0 -4 6 -4 12 0 7 5 31 10 53 12 22 2 42 5 44 7 2 3 8 2
13 -1 5 -3 35 -7 66 -9z"/>
</g>
</svg>
